FFmpeg version SVN-r10464, Copyright (c) 2000-2007 Fabrice Bellard, et al.

  configuration: --enable-gpl --enable-pp --enable-swscaler --enable-pthreads --enable-liba52 --enable-avisynth --enable-libamr-nb --enable-libamr-wb --enable-libfaac --enable-libfaad --enable-libgsm --enable-libmp3lame --enable-libnut --enable-libogg --enable-libtheora --enable-libvorbis --enable-libx264 --enable-libxvid --cpu=i686 --enable-memalign-hack --extra-ldflags=-static

  libavutil version: 49.5.0

  libavcodec version: 51.43.0

  libavformat version: 51.12.2

  built on Sep 10 2007 10:31:22, gcc: 4.2.1



Seems stream 0 codec frame rate differs from container frame rate: 1000.00 (1000/1) -> 25.00 (25/1)

Input #0, flv, from '../files/funny/test_c.flv':

  Duration: 00:00:09.7, start: 0.000000, bitrate: 64 kb/s

  Stream #0.0: Video: flv, yuv420p, 320x224, 25.00 fps(r)

  Stream #0.1: Audio: mp3, 44100 Hz, mono, 64 kb/s

Output #0, image2, to '../files/funny/test_c.jpg':

  Stream #0.0: Video: mjpeg, yuvj420p, 320x240, q=2-31, 200 kb/s, 25.00 fps(c)

Stream mapping:

  Stream #0.0 -> #0.0

Press [q] to stop encoding

frame=   25 fps=  0 q=24.8 Lsize=       0kB time=1.0 bitrate=   0.0kbits/s    


video:119kB audio:0kB global headers:0kB muxing overhead -100.000000%

